<mxfile host="app.diagrams.net" modified="2024-02-04T13:58:26.474Z" agent="Mozilla/5.0 (Windows NT 10.0; Win64; x64) AppleWebKit/537.36 (KHTML, like Gecko) Chrome/120.0.0.0 Safari/537.36" etag="HFppWUYF21J5gPia8M3K" version="23.1.1" type="device">
  <diagram name="PÃ¡gina-1" id="OMr3affmTppGLioEW4E-">
    <mxGraphModel dx="1218" dy="737" grid="1" gridSize="10" guides="1" tooltips="1" connect="1" arrows="1" fold="1" page="1" pageScale="1" pageWidth="827" pageHeight="1169" math="0" shadow="0">
      <root>
        <mxCell id="0" />
        <mxCell id="1" parent="0" />
        <mxCell id="TDtkAq0LrpWnikcYkvjx-1" value="" style="whiteSpace=wrap;html=1;fillColor=#dae8fc;strokeColor=#6c8ebf;" vertex="1" parent="1">
          <mxGeometry x="180" y="150" width="660" height="1020" as="geometry" />
        </mxCell>
        <mxCell id="TDtkAq0LrpWnikcYkvjx-2" value="&lt;font style=&quot;font-size: 13px;&quot;&gt;&lt;b&gt;composition-microservice&lt;/b&gt;&lt;/font&gt;" style="text;html=1;strokeColor=none;fillColor=none;align=left;verticalAlign=middle;whiteSpace=wrap;rounded=0;" vertex="1" parent="1">
          <mxGeometry x="180" y="120" width="170" height="30" as="geometry" />
        </mxCell>
        <mxCell id="TDtkAq0LrpWnikcYkvjx-3" value="" style="rounded=0;whiteSpace=wrap;html=1;fillColor=#647687;fontColor=#ffffff;strokeColor=#314354;" vertex="1" parent="1">
          <mxGeometry x="180" y="200" width="120" height="60" as="geometry" />
        </mxCell>
        <mxCell id="TDtkAq0LrpWnikcYkvjx-4" value="&lt;font style=&quot;font-size: 13px;&quot;&gt;&lt;b&gt;util&lt;/b&gt;&lt;/font&gt;" style="text;html=1;strokeColor=none;fillColor=none;align=left;verticalAlign=middle;whiteSpace=wrap;rounded=0;" vertex="1" parent="1">
          <mxGeometry x="180" y="170" width="120" height="30" as="geometry" />
        </mxCell>
        <mxCell id="TDtkAq0LrpWnikcYkvjx-5" value="&lt;span style=&quot;font-size: 13px;&quot;&gt;&lt;b&gt;api&lt;/b&gt;&lt;/span&gt;" style="text;html=1;strokeColor=none;fillColor=none;align=left;verticalAlign=middle;whiteSpace=wrap;rounded=0;" vertex="1" parent="1">
          <mxGeometry x="180" y="290" width="120" height="30" as="geometry" />
        </mxCell>
        <mxCell id="TDtkAq0LrpWnikcYkvjx-6" value="" style="rounded=0;whiteSpace=wrap;html=1;fillColor=#647687;fontColor=#ffffff;strokeColor=#314354;" vertex="1" parent="1">
          <mxGeometry x="180" y="320" width="120" height="60" as="geometry" />
        </mxCell>
        <mxCell id="TDtkAq0LrpWnikcYkvjx-7" value="" style="whiteSpace=wrap;html=1;fillColor=#d5e8d4;strokeColor=#82b366;" vertex="1" parent="1">
          <mxGeometry x="180" y="440" width="620" height="680" as="geometry" />
        </mxCell>
        <mxCell id="TDtkAq0LrpWnikcYkvjx-8" value="&lt;span style=&quot;font-size: 13px;&quot;&gt;&lt;b&gt;microservice&lt;/b&gt;&lt;/span&gt;" style="text;html=1;strokeColor=none;fillColor=none;align=left;verticalAlign=middle;whiteSpace=wrap;rounded=0;" vertex="1" parent="1">
          <mxGeometry x="180" y="410" width="120" height="30" as="geometry" />
        </mxCell>
        <mxCell id="TDtkAq0LrpWnikcYkvjx-9" value="&lt;span style=&quot;font-size: 13px;&quot;&gt;&lt;b&gt;product-composite-service&lt;/b&gt;&lt;/span&gt;" style="text;html=1;strokeColor=none;fillColor=none;align=left;verticalAlign=middle;whiteSpace=wrap;rounded=0;" vertex="1" parent="1">
          <mxGeometry x="180" y="480" width="190" height="30" as="geometry" />
        </mxCell>
        <mxCell id="TDtkAq0LrpWnikcYkvjx-11" value="&lt;span style=&quot;font-size: 13px;&quot;&gt;&lt;b&gt;product-service&lt;/b&gt;&lt;/span&gt;" style="text;html=1;strokeColor=none;fillColor=none;align=left;verticalAlign=middle;whiteSpace=wrap;rounded=0;" vertex="1" parent="1">
          <mxGeometry x="180" y="645" width="120" height="30" as="geometry" />
        </mxCell>
        <mxCell id="TDtkAq0LrpWnikcYkvjx-12" value="&lt;span style=&quot;font-size: 13px;&quot;&gt;&lt;b&gt;recommentation-service&lt;/b&gt;&lt;/span&gt;" style="text;html=1;strokeColor=none;fillColor=none;align=left;verticalAlign=middle;whiteSpace=wrap;rounded=0;" vertex="1" parent="1">
          <mxGeometry x="180" y="810" width="200" height="30" as="geometry" />
        </mxCell>
        <mxCell id="TDtkAq0LrpWnikcYkvjx-13" value="&lt;span style=&quot;font-size: 13px;&quot;&gt;&lt;b&gt;review-service&lt;/b&gt;&lt;/span&gt;" style="text;html=1;strokeColor=none;fillColor=none;align=left;verticalAlign=middle;whiteSpace=wrap;rounded=0;" vertex="1" parent="1">
          <mxGeometry x="180" y="970" width="120" height="30" as="geometry" />
        </mxCell>
        <mxCell id="TDtkAq0LrpWnikcYkvjx-15" value="" style="rounded=0;whiteSpace=wrap;html=1;fillColor=#f8cecc;strokeColor=#b85450;" vertex="1" parent="1">
          <mxGeometry x="180" y="520" width="320" height="80" as="geometry" />
        </mxCell>
        <mxCell id="TDtkAq0LrpWnikcYkvjx-16" value="" style="rounded=0;whiteSpace=wrap;html=1;fillColor=#f8cecc;strokeColor=#b85450;" vertex="1" parent="1">
          <mxGeometry x="180" y="1000" width="320" height="80" as="geometry" />
        </mxCell>
        <mxCell id="TDtkAq0LrpWnikcYkvjx-17" value="" style="rounded=0;whiteSpace=wrap;html=1;fillColor=#f8cecc;strokeColor=#b85450;" vertex="1" parent="1">
          <mxGeometry x="180" y="840" width="320" height="80" as="geometry" />
        </mxCell>
        <mxCell id="TDtkAq0LrpWnikcYkvjx-18" value="" style="rounded=0;whiteSpace=wrap;html=1;fillColor=#f8cecc;strokeColor=#b85450;" vertex="1" parent="1">
          <mxGeometry x="180" y="680" width="320" height="80" as="geometry" />
        </mxCell>
      </root>
    </mxGraphModel>
  </diagram>
</mxfile>
